<?xml version="1.0" standalone="no"?>
<!DOCTYPE svg PUBLIC "-//W3C//DTD SVG 20010904//EN"
 "http://www.w3.org/TR/2001/REC-SVG-20010904/DTD/svg10.dtd">
<svg version="1.0" xmlns="http://www.w3.org/2000/svg"
 width="416.000000pt" height="416.000000pt" viewBox="0 0 416.000000 416.000000"
 preserveAspectRatio="xMidYMid meet">
<metadata>
Created by potrace 1.14, written by Peter Selinger 2001-2017
</metadata>
<g transform="translate(0.000000,416.000000) scale(0.100000,-0.100000)"
fill="#000000" stroke="none">
<path d="M0 2080 l0 -2080 2080 0 2080 0 0 2080 0 2080 -2080 0 -2080 0 0
-2080z m945 1708 c60 -27 60 12 8 -913 -26 -464 -45 -847 -42 -850 3 -3 595
319 1315 716 720 396 1323 723 1339 726 64 11 110 -62 82 -128 -13 -31 -85
-73 -860 -499 -466 -256 -846 -468 -847 -472 0 -4 345 -411 768 -905 422 -494
777 -911 790 -927 29 -37 28 -77 -2 -109 -34 -37 -68 -43 -110 -20 -24 12
-297 323 -827 943 -436 509 -796 924 -801 922 -6 -1 -203 -109 -439 -238 -424
-233 -429 -236 -429 -267 -2 -142 -80 -1389 -89 -1405 -28 -53 -145 -46 -165
10 -10 28 167 3295 182 3353 8 29 61 75 88 75 7 0 25 -5 39 -12z"/>
</g>
</svg>
